<svg width="64" height="64" viewBox="0 0 64 64" fill="none" xmlns="http://www.w3.org/2000/svg">
<path d="M52.1224 47.8775C52.686 48.4411 53.0026 49.2055 53.0026 50.0025C53.0026 50.7995 52.686 51.5639 52.1224 52.1275C51.5588 52.6911 50.7944 53.0077 49.9974 53.0077C49.2004 53.0077 48.436 52.6911 47.8724 52.1275L31.9999 36.25L16.1224 52.1225C15.5588 52.6861 14.7944 53.0027 13.9974 53.0027C13.2004 53.0027 12.436 52.6861 11.8724 52.1225C11.3088 51.5589 10.9922 50.7945 10.9922 49.9975C10.9922 49.2005 11.3088 48.4361 11.8724 47.8725L27.7499 32L11.8774 16.1225C11.3138 15.5589 10.9972 14.7945 10.9972 13.9975C10.9972 13.2005 11.3138 12.4361 11.8774 11.8725C12.441 11.3089 13.2054 10.9923 14.0024 10.9923C14.7994 10.9923 15.5638 11.3089 16.1274 11.8725L31.9999 27.75L47.8774 11.87C48.441 11.3064 49.2054 10.9898 50.0024 10.9898C50.7994 10.9898 51.5638 11.3064 52.1274 11.87C52.691 12.4336 53.0076 13.198 53.0076 13.995C53.0076 14.792 52.691 15.5564 52.1274 16.12L36.2499 32L52.1224 47.8775Z" fill="white"/>
</svg>
